<?xml version="1.0" encoding="utf-8"?>
<!-- Generator: Adobe Illustrator 23.1.0, SVG Export Plug-In . SVG Version: 6.00 Build 0)  -->
<svg version="1.1" id="Layer_1" xmlns="http://www.w3.org/2000/svg" xmlns:xlink="http://www.w3.org/1999/xlink" x="0px" y="0px"
	 viewBox="0 0 120 21.76" style="enable-background:new 0 0 120 21.76;" xml:space="preserve">
<style type="text/css">
	.st0{fill:#00AAE7;}
	.st1{fill:#004A7C;}
	.st2{fill:none;}
	.st3{fill:#668BB3;}
</style>
<g>
	<path class="st0" d="M51.83,0.31C46.4,0.6,42.21,5.25,42.5,10.68c0.28,5.43,4.94,9.62,10.37,9.34c0.79-0.04,1.55-0.18,2.28-0.39
		l0.01,0l0.74,1.41c0.3,0.57,1,0.79,1.57,0.49c0.57-0.3,0.79-1,0.49-1.57L57.3,18.7c3.1-1.8,5.1-5.23,4.9-9.05
		C61.92,4.21,57.27,0.03,51.83,0.31z M56.22,16.63l-0.84-1.6c-0.3-0.57-1-0.79-1.57-0.49c-0.57,0.3-0.79,1-0.49,1.57l0.73,1.4
		l-0.01,0c-0.42,0.1-0.85,0.16-1.29,0.18c-4.15,0.22-7.7-2.98-7.92-7.13c-0.22-4.15,2.98-7.7,7.13-7.92s7.7,2.98,7.92,7.13
		C60.03,12.65,58.53,15.24,56.22,16.63z"/>
	<path class="st0" d="M36.68,19.98c-0.64,0-1.17-0.52-1.17-1.17V1.52c0-0.64,0.52-1.17,1.17-1.17s1.17,0.52,1.17,1.17v17.29
		C37.84,19.45,37.32,19.98,36.68,19.98z"/>
	<path class="st1" d="M92.01,19.98c-0.64,0-1.17-0.52-1.17-1.17V1.52c0-0.64,0.52-1.17,1.17-1.17c0.64,0,1.17,0.52,1.17,1.17v17.29
		C93.18,19.45,92.66,19.98,92.01,19.98z"/>
	<path class="st1" d="M75.41,19.98C75.41,19.98,75.41,19.98,75.41,19.98c-0.44,0-0.83-0.24-1.03-0.62L65.32,2.06
		c-0.3-0.57-0.08-1.27,0.49-1.57c0.57-0.3,1.27-0.08,1.57,0.49l8.03,15.34l8.19-15.35c0.3-0.57,1.01-0.78,1.58-0.48
		c0.57,0.3,0.78,1.01,0.48,1.58l-9.23,17.29C76.24,19.74,75.84,19.98,75.41,19.98z"/>
	<g>
		<path class="st1" d="M112.38,16.05h-5.62c-0.64,0-1.17-0.52-1.17-1.17c0-0.64,0.52-1.17,1.17-1.17h5.62
			c0.64,0,1.17,0.52,1.17,1.17C113.54,15.53,113.02,16.05,112.38,16.05z"/>
		<path class="st1" d="M118.68,19.98c-0.42,0-0.83-0.23-1.03-0.63l-8.03-15.34l-8.19,15.35c-0.3,0.57-1.01,0.78-1.58,0.48
			c-0.57-0.3-0.78-1.01-0.48-1.58l9.23-17.29c0.2-0.38,0.6-0.63,1.03-0.62c0.43,0,0.83,0.24,1.03,0.62l9.05,17.29
			c0.3,0.57,0.08,1.27-0.49,1.57C119.05,19.93,118.87,19.98,118.68,19.98z"/>
	</g>
</g>
<g>
	<rect x="-19.39" y="-19.44" class="st2" width="158.97" height="60.83"/>
</g>
<g>
	<path class="st1" d="M28.75,16.73h-5.72c-0.4,0.73-0.86,1.39-1.38,1.98h7.1c0.55,0,0.99-0.45,0.99-0.99v0
		C29.75,17.18,29.3,16.73,28.75,16.73z"/>
	<path class="st1" d="M28.75,12.95H24.4c-0.14,0.69-0.32,1.35-0.55,1.98h4.91c0.55,0,0.99-0.45,0.99-0.99
		C29.75,13.4,29.3,12.95,28.75,12.95z"/>
	<path class="st1" d="M28.75,9.17h-4.11c0.02,0.31,0.03,0.62,0.03,0.94c0,0.35-0.01,0.7-0.04,1.05h4.12c0.55,0,0.99-0.45,0.99-0.99
		C29.75,9.62,29.3,9.17,28.75,9.17z"/>
	<path class="st1" d="M28.75,5.39h-4.87c0.22,0.63,0.4,1.3,0.53,1.98h4.34c0.55,0,0.99-0.45,0.99-0.99v0
		C29.75,5.84,29.3,5.39,28.75,5.39z"/>
	<path class="st1" d="M28.75,1.61h-7c0.51,0.59,0.96,1.26,1.35,1.98h5.66c0.55,0,0.99-0.45,0.99-0.99S29.3,1.61,28.75,1.61z"/>
	<path class="st0" d="M9.84,17.73L9.84,17.73c0-0.55,0.45-0.99,0.99-0.99H6.93c-0.55,0-0.99,0.45-0.99,0.99v0
		c0,0.55,0.45,0.99,0.99,0.99h3.91C10.29,18.72,9.84,18.27,9.84,17.73z"/>
	<path class="st3" d="M23.03,16.73h-12.2c-0.55,0-0.99,0.45-0.99,0.99v0c0,0.55,0.45,0.99,0.99,0.99h10.82
		C22.17,18.13,22.63,17.46,23.03,16.73z"/>
	<path class="st0" d="M7.07,14.16c-0.13-0.64,0.36-1.2,0.97-1.2H4.13c-0.55,0-0.99,0.45-0.99,0.99s0.45,0.99,0.99,0.99h3.94
		C7.6,14.94,7.17,14.62,7.07,14.16z"/>
	<path class="st3" d="M24.4,12.95H8.04c-0.61,0-1.1,0.57-0.97,1.2c0.1,0.46,0.53,0.78,1,0.78h15.77
		C24.07,14.3,24.26,13.64,24.4,12.95z"/>
	<path class="st0" d="M4.28,10.37c-0.13-0.64,0.36-1.2,0.97-1.2H1.34c-0.55,0-0.99,0.45-0.99,0.99c0,0.55,0.45,0.99,0.99,0.99h3.94
		C4.81,11.16,4.38,10.84,4.28,10.37z"/>
	<path class="st3" d="M4.28,10.37c0.1,0.46,0.53,0.78,1,0.78h19.35c0.02-0.35,0.04-0.69,0.04-1.05c0-0.32-0.01-0.63-0.03-0.94H5.25
		C4.64,9.17,4.15,9.74,4.28,10.37z"/>
	<path class="st0" d="M5.64,6.38c0-0.55,0.45-0.99,0.99-0.99H2.73c-0.55,0-0.99,0.45-0.99,0.99v0c0,0.55,0.45,0.99,0.99,0.99h3.91
		C6.09,7.37,5.64,6.93,5.64,6.38z"/>
	<path class="st3" d="M23.88,5.39H6.64c-0.55,0-0.99,0.45-0.99,0.99c0,0.55,0.45,0.99,0.99,0.99h17.78
		C24.29,6.69,24.11,6.02,23.88,5.39z"/>
	<path class="st0" d="M12.85,2.81c-0.13-0.64,0.36-1.2,0.97-1.2H9.91c-0.55,0-0.99,0.45-0.99,0.99s0.45,0.99,0.99,0.99h3.94
		C13.38,3.59,12.95,3.27,12.85,2.81z"/>
	<path class="st3" d="M21.75,1.61h-7.93c-0.61,0-1.1,0.57-0.97,1.2c0.1,0.46,0.53,0.78,1,0.78h9.24C22.71,2.87,22.25,2.2,21.75,1.61
		z"/>
</g>
</svg>
