<svg width="160" height="29" viewBox="0 0 160 29" fill="none" xmlns="http://www.w3.org/2000/svg">
<g clip-path="url(#clip0_1_248)">
<path d="M69.1069 0.413088C61.8669 0.799534 56.2802 6.99599 56.6669 14.2319C57.0402 21.4677 63.2535 27.0512 70.4935 26.6781C71.5469 26.6248 72.5602 26.4382 73.5335 26.1584H73.5469L74.5335 28.0373C74.9335 28.7969 75.8669 29.09 76.6269 28.6903C77.3869 28.2905 77.6802 27.3577 77.2802 26.5981L76.4002 24.9191C80.5335 22.5205 83.2002 17.9497 82.9335 12.8593C82.5602 5.61012 76.3602 0.0399682 69.1069 0.413088ZM74.9602 22.1607L73.8402 20.0285C73.4402 19.269 72.5069 18.9758 71.7469 19.3756C70.9869 19.7754 70.6935 20.7082 71.0935 21.4677L72.0669 23.3333H72.0535C71.4935 23.4666 70.9202 23.5465 70.3335 23.5732C64.8002 23.8664 60.0669 19.6021 59.7735 14.0719C59.4802 8.54178 63.7469 3.81115 69.2802 3.51798C74.8135 3.22482 79.5469 7.48905 79.8402 13.0192C80.0402 16.857 78.0402 20.3084 74.9602 22.1607Z" fill="#00AAE7"/>
<path d="M48.9067 26.6248C48.0533 26.6248 47.3467 25.9318 47.3467 25.0656V2.02548C47.3467 1.17263 48.04 0.46637 48.9067 0.46637C49.7733 0.46637 50.4667 1.15931 50.4667 2.02548V25.0656C50.4533 25.9185 49.76 26.6248 48.9067 26.6248Z" fill="#00AAE7"/>
<path d="M122.68 26.6248C121.827 26.6248 121.12 25.9318 121.12 25.0656V2.02548C121.12 1.17263 121.813 0.46637 122.68 0.46637C123.533 0.46637 124.24 1.15931 124.24 2.02548V25.0656C124.24 25.9185 123.547 26.6248 122.68 26.6248Z" fill="#004A7C"/>
<path d="M100.547 26.6248C99.9599 26.6248 99.4399 26.305 99.1732 25.7986L87.0933 2.74509C86.6933 1.98552 86.9866 1.05272 87.7466 0.652948C88.5066 0.253176 89.4399 0.546342 89.8399 1.30591L100.547 21.7476L111.467 1.29258C111.867 0.533016 112.813 0.253176 113.573 0.652948C114.333 1.05272 114.613 1.99884 114.213 2.75841L101.907 25.7986C101.653 26.305 101.12 26.6248 100.547 26.6248Z" fill="#004A7C"/>
<path d="M149.84 21.3877H142.347C141.494 21.3877 140.787 20.6948 140.787 19.8286C140.787 18.9758 141.48 18.2695 142.347 18.2695H149.84C150.694 18.2695 151.4 18.9625 151.4 19.8286C151.387 20.6948 150.694 21.3877 149.84 21.3877Z" fill="#004A7C"/>
<path d="M158.24 26.6248C157.68 26.6248 157.133 26.3183 156.867 25.7853L146.16 5.3436L135.24 25.7986C134.84 26.5581 133.893 26.838 133.133 26.4382C132.373 26.0384 132.093 25.0923 132.493 24.3328L144.8 1.29258C145.067 0.786206 145.6 0.453063 146.173 0.466389C146.747 0.466389 147.28 0.786206 147.547 1.29258L159.613 24.3328C160.013 25.0923 159.72 26.0251 158.96 26.4249C158.733 26.5581 158.493 26.6248 158.24 26.6248Z" fill="#004A7C"/>
<path d="M38.3334 22.2939H30.7067C30.1734 23.2667 29.56 24.1462 28.8667 24.9324H38.3334C39.0667 24.9324 39.6534 24.3328 39.6534 23.6132C39.6667 22.8936 39.0667 22.2939 38.3334 22.2939Z" fill="#004A7C"/>
<path d="M38.3336 17.2568H32.5336C32.347 18.1763 32.107 19.0558 31.8003 19.8953H38.347C39.0803 19.8953 39.667 19.2957 39.667 18.5761C39.667 17.8565 39.067 17.2568 38.3336 17.2568Z" fill="#004A7C"/>
<path d="M38.3337 12.2197H32.8537C32.8803 12.6328 32.8937 13.0459 32.8937 13.4723C32.8937 13.9387 32.8803 14.4051 32.8403 14.8715H38.3337C39.067 14.8715 39.6537 14.2718 39.6537 13.5522C39.667 12.8193 39.067 12.2197 38.3337 12.2197Z" fill="#004A7C"/>
<path d="M38.3337 7.18256H31.8403C32.1337 8.02208 32.3737 8.9149 32.547 9.82105H38.3337C39.067 9.82105 39.6537 9.22139 39.6537 8.5018C39.667 7.78221 39.067 7.18256 38.3337 7.18256Z" fill="#004A7C"/>
<path d="M38.3333 2.14545H29C29.68 2.93166 30.28 3.82449 30.8 4.78394H38.3467C39.08 4.78394 39.6667 4.18428 39.6667 3.46469C39.6667 2.7451 39.0667 2.14545 38.3333 2.14545Z" fill="#004A7C"/>
<path d="M13.1199 23.6265C13.1199 22.8936 13.7199 22.3073 14.4399 22.3073H9.23992C8.50659 22.3073 7.91992 22.9069 7.91992 23.6265C7.91992 24.3594 8.51992 24.9457 9.23992 24.9457H14.4533C13.7199 24.9457 13.1199 24.3461 13.1199 23.6265Z" fill="#00AAE7"/>
<path d="M30.7068 22.2939H14.4401C13.7068 22.2939 13.1201 22.8936 13.1201 23.6132C13.1201 24.3461 13.7201 24.9324 14.4401 24.9324H28.8668C29.5601 24.1595 30.1735 23.2667 30.7068 22.2939Z" fill="#668BB3"/>
<path d="M9.42701 18.8692C9.25368 18.0164 9.90701 17.2701 10.7203 17.2701H5.50701C4.77368 17.2701 4.18701 17.8698 4.18701 18.5894C4.18701 19.309 4.78701 19.9086 5.50701 19.9086H10.7603C10.1337 19.9086 9.56034 19.4822 9.42701 18.8692Z" fill="#00AAE7"/>
<path d="M32.5337 17.2568H10.7203C9.90701 17.2568 9.25367 18.0164 9.42701 18.8559C9.56034 19.4689 10.1337 19.8953 10.7603 19.8953H31.787C32.0937 19.0558 32.347 18.1763 32.5337 17.2568Z" fill="#668BB3"/>
<path d="M5.7068 13.8188C5.53346 12.9659 6.1868 12.2197 7.00013 12.2197H1.7868C1.05346 12.2197 0.466797 12.8193 0.466797 13.5389C0.466797 14.2718 1.0668 14.8582 1.7868 14.8582H7.04013C6.41346 14.8715 5.84013 14.4451 5.7068 13.8188Z" fill="#00AAE7"/>
<path d="M5.70679 13.8188C5.84012 14.4318 6.41346 14.8582 7.04012 14.8582H32.8401C32.8668 14.3918 32.8935 13.9387 32.8935 13.459C32.8935 13.0326 32.8801 12.6195 32.8535 12.2064H7.00012C6.18679 12.2197 5.53346 12.9793 5.70679 13.8188Z" fill="#668BB3"/>
<path d="M7.52031 8.5018C7.52031 7.76889 8.12031 7.18256 8.84031 7.18256H3.64031C2.90698 7.18256 2.32031 7.78221 2.32031 8.5018C2.32031 9.23472 2.92031 9.82105 3.64031 9.82105H8.85365C8.12031 9.82105 7.52031 9.23472 7.52031 8.5018Z" fill="#00AAE7"/>
<path d="M31.8404 7.18256H8.85369C8.12036 7.18256 7.53369 7.78221 7.53369 8.5018C7.53369 9.23472 8.13369 9.82105 8.85369 9.82105H32.5604C32.387 8.9149 32.147 8.02208 31.8404 7.18256Z" fill="#668BB3"/>
<path d="M17.1336 3.74453C16.9602 2.89169 17.6136 2.14545 18.4269 2.14545H13.2136C12.4802 2.14545 11.8936 2.7451 11.8936 3.46469C11.8936 4.18428 12.4936 4.78394 13.2136 4.78394H18.4669C17.8402 4.78394 17.2669 4.35752 17.1336 3.74453Z" fill="#00AAE7"/>
<path d="M29.0002 2.14545H18.4269C17.6135 2.14545 16.9602 2.90501 17.1335 3.74453C17.2669 4.35752 17.8402 4.78394 18.4669 4.78394H30.7869C30.2802 3.82449 29.6669 2.93166 29.0002 2.14545Z" fill="#668BB3"/>
</g>
<defs>
<clipPath id="clip0_1_248">
<rect width="160" height="28.9968" fill="white"/>
</clipPath>
</defs>
</svg>
